<svg xmlns="http://www.w3.org/2000/svg" xmlns:xlink="http://www.w3.org/1999/xlink" width="127" height="34" viewBox="0 0 127 34"><defs><clipPath id="a"><rect width="105.724" height="17.255"/></clipPath></defs><g transform="translate(-150 -32)"><path d="M0,0H117a10,10,0,0,1,10,10V34a0,0,0,0,1,0,0H10A10,10,0,0,1,0,24V0A0,0,0,0,1,0,0Z" transform="translate(150 32)" fill="#fcfcfc"/><g transform="translate(160.638 41.358)"><g transform="translate(0 0)" clip-path="url(#a)"><path d="M10.2,14.617H3.646a.329.329,0,0,1-.238-.071.329.329,0,0,1-.071-.238V1.6a.577.577,0,0,0-.143-.441.658.658,0,0,0-.453-.131H.572a.61.61,0,0,0-.441.131A.61.61,0,0,0,0,1.6V17.143a.608.608,0,0,0,.131.441.609.609,0,0,0,.441.131H10.2a.483.483,0,0,0,.572-.572V15.189a.483.483,0,0,0-.572-.572" transform="translate(0 -0.746)"/><path d="M58.57,14.617H52.063a.262.262,0,0,1-.31-.31V11.185a.325.325,0,0,1,.071-.251.377.377,0,0,1,.238-.059h5.672a.655.655,0,0,0,.453-.131.576.576,0,0,0,.143-.441V8.372a.514.514,0,0,0-.6-.6H52.063a.262.262,0,0,1-.31-.31V4.44a.329.329,0,0,1,.071-.238.329.329,0,0,1,.238-.071h6.483A.657.657,0,0,0,59,4a.577.577,0,0,0,.143-.441V1.6A.577.577,0,0,0,59,1.163a.658.658,0,0,0-.453-.131H48.989a.61.61,0,0,0-.441.131.61.61,0,0,0-.131.441V17.143a.483.483,0,0,0,.572.572H58.57a.657.657,0,0,0,.453-.131.576.576,0,0,0,.143-.441V15.189a.577.577,0,0,0-.143-.441.657.657,0,0,0-.453-.131" transform="translate(-34.999 -0.746)"/><path d="M111.87.286H109.7a.609.609,0,0,0-.441.131.609.609,0,0,0-.131.441v9.509l-9.08-9.6a5.028,5.028,0,0,0-.679-.6A.855.855,0,0,0,98.906,0q-.525,0-.525.858V16.4a.483.483,0,0,0,.572.572h2.169a.657.657,0,0,0,.453-.131.577.577,0,0,0,.143-.441V6.888l9.08,9.6a5.665,5.665,0,0,0,.667.6.8.8,0,0,0,.453.167.453.453,0,0,0,.417-.214,1.26,1.26,0,0,0,.131-.643V.858a.577.577,0,0,0-.143-.441.657.657,0,0,0-.453-.131" transform="translate(-71.117 0)"/><path d="M174.029,2.033a10.974,10.974,0,0,0-4.862-1h-5.458a.609.609,0,0,0-.441.131.609.609,0,0,0-.131.441V17.143a.483.483,0,0,0,.572.572h5.076a11.361,11.361,0,0,0,5.064-1.049A7.48,7.48,0,0,0,177.1,13.7a8.8,8.8,0,0,0,1.12-4.516,8.413,8.413,0,0,0-1.072-4.3,7.118,7.118,0,0,0-3.122-2.848m.048,10.105a4.55,4.55,0,0,1-2.038,1.835,7.491,7.491,0,0,1-3.253.643h-2a.262.262,0,0,1-.31-.31V4.44a.329.329,0,0,1,.071-.238.329.329,0,0,1,.238-.071h2.1a7.336,7.336,0,0,1,3.182.632,4.548,4.548,0,0,1,2.014,1.8,5.283,5.283,0,0,1,.691,2.741,5.559,5.559,0,0,1-.691,2.836" transform="translate(-117.927 -0.746)"/><path d="M238.219,14.617h-6.506a.262.262,0,0,1-.31-.31V11.185a.325.325,0,0,1,.071-.251.378.378,0,0,1,.239-.059h5.672a.655.655,0,0,0,.453-.131.575.575,0,0,0,.143-.441V8.372a.514.514,0,0,0-.6-.6h-5.672a.262.262,0,0,1-.31-.31V4.44a.329.329,0,0,1,.071-.238.33.33,0,0,1,.239-.071H238.2A.657.657,0,0,0,238.648,4a.577.577,0,0,0,.143-.441V1.6a.578.578,0,0,0-.143-.441.658.658,0,0,0-.453-.131h-9.557a.61.61,0,0,0-.441.131.61.61,0,0,0-.131.441V17.143a.483.483,0,0,0,.572.572h9.581a.658.658,0,0,0,.453-.131.577.577,0,0,0,.143-.441V15.189a.578.578,0,0,0-.143-.441.658.658,0,0,0-.453-.131" transform="translate(-164.862 -0.746)"/><path d="M308.52,33.054l-1.09,1.09a2.306,2.306,0,0,0,0,3.263l3.534,3.53,1.4-1.4a1.876,1.876,0,0,0,0-2.653Z" transform="translate(-221.744 -23.894)"/><path d="M353.492,1.658V.829h-8.4a2.341,2.341,0,0,0-2.341,2.341V4h8.4a2.341,2.341,0,0,0,2.341-2.341" transform="translate(-247.769 -0.599)"/><path d="M278.793,9.065a11.937,11.937,0,0,0,1.279-1.324,2.434,2.434,0,0,0-.246-3.085h0L276.011.841l-1.278,1.278a2.04,2.04,0,0,0,0,2.885Z" transform="translate(-198.164 -0.608)"/><path d="M283.325,19.825c-.332-.345-.951-.945-1.314-1.3l-.005.005-.261-.261-.021-.02h0l-.816-.816a2.57,2.57,0,0,1-.307,2.452,11.8,11.8,0,0,1-1.314,1.369l.006.006-4.082,4.082a2.265,2.265,0,0,0,0,3.2l1.1,1.1,5.684-5.684.912-.884.632-.632a1.877,1.877,0,0,0-.211-2.623" transform="translate(-198.462 -12.605)"/><path d="M309.014,2.47l-1.4-1.4-5.431,5.431c.365.352.984.953,1.318,1.3a2.108,2.108,0,0,1,.626,2.2l4.882-4.882a1.876,1.876,0,0,0,0-2.653" transform="translate(-218.442 -0.776)"/><path d="M350.768,46.995h-4.62l-1.16,0c-.147,0-.283,0-.4,0a2.111,2.111,0,0,1-1.979-1.084v1.623a2.632,2.632,0,0,0,2.634,2.631h8.143v-.551a2.62,2.62,0,0,0-2.619-2.619" transform="translate(-247.664 -33.188)"/><path d="M344.6,31.744c.351.006.909,0,1.381-.006v-2.4c-.007-.353-.03-1.549-.019-2.152a2.108,2.108,0,0,1,1.1-1.992l-1.085,0-1.539.007a1.835,1.835,0,0,0-1.826,1.831h0v3.075a1.864,1.864,0,0,0,1.984,1.631" transform="translate(-247.664 -18.214)"/><path d="M360.481,25.144l-3.105.012a1.875,1.875,0,0,0-1.7,2c-.005.3,0,.738,0,1.151h7.15v-.819a2.344,2.344,0,0,0-2.351-2.344" transform="translate(-257.109 -18.176)"/></g></g></g></svg>